<?xml version="1.0" encoding="UTF-8"?>
<svg version="1.1" viewBox="0 0 1600 1600" width="1280" height="1280" xmlns="http://www.w3.org/2000/svg">
<path transform="translate(1424 -.168)" d="m0 0c1.99-0.00323 3.99-0.00659 5.98-0.0101 4.15-0.00594 8.3-0.00785 12.5-0.00725 4.2 8.11e-5 8.39-0.00685 12.6-0.0205 89-0.285 89-0.285 116 23.2 0.762 0.666 1.52 1.33 2.31 2.02 17.1 16 23.6 37.8 25.4 60.5 0.0622 0.795 0.124 1.59 0.189 2.41 4.05 54.5 1.28 110-2.88 164-0.0844 1.11-0.169 2.22-0.256 3.36-1.04 13.6-2.29 27.1-3.74 40.6-0.0877 0.822-0.175 1.64-0.266 2.49-9.92 92.5-29.8 183-60 271-0.707 2.06-1.41 4.12-2.12 6.18-6.6 19.3-13.9 38.2-21.8 57-0.797 1.9-1.59 3.8-2.38 5.7-16.4 39.3-35.5 77.8-57.4 114-0.597 0.998-1.19 2-1.81 3.02-6.69 11.2-13.5 22.2-20.8 33-1.57 2.33-3.12 4.66-4.67 7.01-15.5 23.4-31.9 46-49.1 68-1.4 1.8-2.79 3.6-4.17 5.42-6.38 8.4-13.1 16.5-19.8 24.7-2.15 2.59-4.28 5.2-6.41 7.81-0.688 0.839-1.38 1.68-2.09 2.54-1.54 1.89-3.06 3.79-4.58 5.7-0.812 1.01-1.62 2.03-2.46 3.07-0.731 0.922-1.46 1.84-2.21 2.79-0.61 0.666-1.22 1.33-1.85 2.02h-2c-0.268 0.578-0.536 1.16-0.812 1.75-1.22 2.31-2.49 4.27-4.19 6.25h-2c-0.213 0.531-0.425 1.06-0.645 1.61-1.88 3.31-4.44 5.9-7.04 8.64-1.1 1.17-2.19 2.34-3.29 3.5-0.526 0.561-1.05 1.12-1.59 1.7-1.73 1.87-3.4 3.79-5.06 5.73-3.38 3.92-7.04 7.52-10.8 11.1-1.98 2.02-3.81 4.05-5.64 6.19-4.59 5.26-9.52 10.2-14.5 15.1-1 1-2 2.01-3.01 3.01-2.09 2.09-4.18 4.18-6.27 6.27-2.66 2.65-5.32 5.31-7.97 7.97-2.06 2.07-4.13 4.13-6.2 6.2-0.979 0.979-1.96 1.96-2.94 2.94-6.36 6.37-12.8 12.6-19.8 18.1-3.21 2.6-6.02 5.55-8.9 8.5-4.29 4.35-8.77 8.4-13.4 12.4-1.11 0.954-2.23 1.91-3.34 2.86-1.84 1.58-3.68 3.15-5.52 4.73-3.13 2.68-6.24 5.37-9.33 8.1-3.88 3.41-7.88 6.66-11.9 9.92-3.01 2.46-6 4.95-8.99 7.45-8.92 7.44-18 14.6-27.3 21.7-1.62 1.25-3.24 2.5-4.86 3.75-12.3 9.5-24.8 18.6-37.5 27.5-2.79 1.96-5.57 3.93-8.34 5.92-11.7 8.41-23.8 16.3-36 24.1-0.93 0.601-1.86 1.2-2.82 1.82-18.7 12.1-37.7 23.4-57.2 34.2-2.27 1.26-4.54 2.52-6.81 3.78-1.53 0.848-3.06 1.69-4.59 2.54-3.6 1.99-7.18 4.01-10.7 6.13-0.638 0.379-1.28 0.758-1.93 1.15-1.72 1.03-3.43 2.07-5.14 3.11-2.82 1.3-2.82 1.3-5.14 1.2-1.68-0.895-1.68-0.895-2.68-3.89h-2c-1.41-1.43-1.41-1.43-3.06-3.44-4.06-4.78-8.46-9.16-12.9-13.6-69.9-69.9-140-140-500-500-2.54-2.56-2.54-2.56-5.44-4.81-3.2-2.61-5.79-5.64-8.47-8.77-2.98-3.45-6.12-6.48-9.66-9.36-3.08-2.63-5.45-5.43-8-8.56-2.61-2.71-5.29-5.28-8.15-7.72l-1.61-1.39c-1.09-0.941-2.2-1.87-3.31-2.79-1.58-1.39-1.58-1.39-3.93-4.11 0.32-3.58 1.5-6.3 3.23-9.42 0.466-0.847 0.932-1.69 1.41-2.57 0.51-0.911 1.02-1.82 1.55-2.76 0.534-0.964 1.07-1.93 1.62-2.92 1.14-2.06 2.29-4.12 3.44-6.17 1.72-3.09 3.43-6.18 5.14-9.28 11.5-20.7 23.5-41.1 36.6-60.9 0.729-1.1 1.46-2.2 2.21-3.33 27.8-41.9 27.8-41.9 37.4-54.5 2.54-3.33 5.01-6.72 7.49-10.1 6.05-8.27 12.2-16.4 18.6-24.4 1.86-2.35 3.71-4.71 5.56-7.07 10.3-13.1 20.9-26 31.9-38.5 1.93-2.22 3.82-4.46 5.7-6.71 5.42-6.46 11-12.7 16.7-18.9 1.46-1.57 2.91-3.14 4.36-4.71 4.08-4.42 8.15-8.84 12.2-13.2 4.82-5.2 9.62-10.4 14.2-15.8 2.11-2.35 4.36-4.55 6.6-6.78 0.943-0.947 1.89-1.89 2.83-2.84 2.74-2.76 5.48-5.51 8.22-8.26 1.17-1.18 2.35-2.36 3.52-3.54 5.81-5.85 11.6-11.7 17.9-17 1.96-1.69 3.77-3.49 5.57-5.35 3.22-3.27 6.59-6.29 10.1-9.29 1.89-1.67 3.67-3.41 5.43-5.21 3.66-3.71 7.55-7.1 11.5-10.5 2.46-2.12 4.92-4.25 7.38-6.38l1.99-1.72c3.67-3.18 7.3-6.39 10.9-9.66 5.09-4.61 10.4-8.93 15.8-13.2 1.83-1.5 3.67-3 5.5-4.5 0.91-0.744 1.82-1.49 2.76-2.25 1.81-1.48 3.62-2.97 5.42-4.46 11.8-9.74 24.1-18.9 36.3-28 3.1-2.32 6.19-4.64 9.27-6.98 9.06-6.87 18.3-13.4 27.7-19.8 1-0.674 2-1.35 3.03-2.04 25.6-17.2 51.4-33.8 78.5-48.6 2.7-1.47 5.4-2.96 8.09-4.44 67-36.7 139-64.4 212-85.3 2.03-0.58 4.05-1.17 6.07-1.76 89.8-26 183-38.2 276-45.1 0.884-0.0664 1.77-0.133 2.68-0.201 2.94-0.213 5.89-0.408 8.83-0.596 0.664-0.0426 1.33-0.0851 2.01-0.129 12.8-0.799 25.5-1.03 38.2-1.04zm-428 291c-0.637 0.295-1.27 0.589-1.93 0.893-18 8.37-34 19.2-49.1 32.1-0.821 0.703-1.64 1.41-2.49 2.13-1.27 1.1-2.53 2.21-3.79 3.34-1.23 1.09-2.47 2.17-3.73 3.23-4.07 3.45-7.66 7.04-11.1 11.1-1.33 1.54-2.69 3.04-4.09 4.52-12.9 13.6-23 29.2-31.8 45.7-0.424 0.791-0.848 1.58-1.28 2.4-11.1 21.2-19.3 44.9-22.7 68.6-0.145 0.973-0.29 1.95-0.44 2.95-9 62.1 5.83 125 42.9 175 1.48 1.91 2.98 3.81 4.5 5.69 0.422 0.523 0.843 1.05 1.28 1.58 11.8 14.5 24.9 28.1 40 39.2 1.68 1.23 3.33 2.48 4.99 3.73 47.8 35.7 109 50.6 168 43.5 0.829-0.098 1.66-0.196 2.51-0.297 42-5.2 82.8-22.8 115-49.7 0.549-0.448 1.1-0.896 1.66-1.36 13.3-10.9 25.9-22.9 36.3-36.6 0.427-0.556 0.855-1.11 1.29-1.69 6.93-9.05 13.1-18.4 18.7-28.3 0.374-0.657 0.747-1.31 1.13-1.99 29.9-53 36.4-117 20.6-176-9.95-35-27.2-67.5-52-94.2-1.68-1.89-1.68-1.89-2.68-3.89h-2c-0.404-0.891-0.404-0.891-0.816-1.8-3.78-7.02-11.5-12-17.6-16.9-1.69-1.36-3.35-2.75-5.01-4.15-9.3-7.74-19.1-14.2-29.6-20.1-0.812-0.463-1.62-0.926-2.46-1.4-65.4-36.9-147-39.6-215-7.6z" fill="#000002"/>
<path transform="translate(342,737)" d="m0 0c3.19 1.41 5.34 3.09 7.8 5.55 0.747 0.742 1.49 1.48 2.26 2.25 0.815 0.82 1.63 1.64 2.47 2.48 1.31 1.31 1.31 1.31 2.65 2.64 2.43 2.43 4.87 4.86 7.29 7.3 2.64 2.64 5.28 5.28 7.93 7.92 4.64 4.63 9.27 9.26 13.9 13.9 6.89 6.89 13.8 13.8 20.7 20.7 12.3 12.3 24.6 24.6 36.9 36.9 10.8 10.8 21.5 21.5 32.3 32.3 1.07 1.07 1.07 1.07 2.16 2.16 2.9 2.9 5.79 5.79 8.69 8.69 27.2 27.2 54.4 54.4 81.5 81.5 24.2 24.2 48.3 48.3 72.5 72.5 27.1 27.1 54.3 54.2 81.4 81.4 2.89 2.89 5.78 5.78 8.67 8.67 0.712 0.712 1.42 1.42 2.16 2.16 10.8 10.8 21.5 21.5 32.3 32.3 12.2 12.2 24.5 24.5 36.7 36.7 6.85 6.85 13.7 13.7 20.6 20.6 4.57 4.57 9.14 9.14 13.7 13.7 2.61 2.61 5.21 5.22 7.82 7.82 2.81 2.8 5.61 5.61 8.41 8.42 0.82 0.815 1.64 1.63 2.48 2.47 1.11 1.12 1.11 1.12 2.25 2.26 0.641 0.642 1.28 1.28 1.94 1.94 1.61 1.86 2.61 3.61 3.6 5.85-4.39 1.66-8.78 3.3-13.2 4.94-1.97 0.738-3.94 1.48-5.91 2.23-163 61.7-163 61.7-213 41.5-1.91-0.871-3.8-1.77-5.69-2.69-1.38-0.646-1.38-0.646-2.8-1.3-7.52-3.76-13.2-8.92-19.2-14.7-1.41-1.24-2.82-2.47-4.25-3.69-7.74-6.75-7.74-6.75-10.8-10.3v-2c-0.99-0.33-1.98-0.66-3-1-1.34-1.66-2.67-3.33-4-5-0.969-0.804-1.94-1.61-2.94-2.44-3.13-2.62-5.46-5.44-8.06-8.56-0.99-0.825-1.98-1.65-3-2.5-3.11-2.59-5.42-5.4-8-8.5-2-1.67-4-3.34-6-5-0.639-0.804-1.28-1.61-1.94-2.44-1.77-2.2-3.41-3.77-5.56-5.56-2.92-2.43-5.13-5.02-7.5-8-0.969-0.804-1.94-1.61-2.94-2.44-3.13-2.62-5.46-5.44-8.06-8.56-0.99-0.825-1.98-1.65-3-2.5-3.11-2.59-5.42-5.4-8-8.5-2-1.67-4-3.34-6-5-1.33-1.67-2.67-3.33-4-5-0.969-0.804-1.94-1.61-2.94-2.44-3.13-2.62-5.46-5.44-8.06-8.56-0.99-0.825-1.98-1.65-3-2.5-3.11-2.59-5.42-5.4-8-8.5-2-1.67-4-3.34-6-5-0.639-0.804-1.28-1.61-1.94-2.44-1.77-2.2-3.41-3.77-5.56-5.56-2.92-2.43-5.13-5.02-7.5-8-0.969-0.804-1.94-1.61-2.94-2.44-3.13-2.62-5.46-5.44-8.06-8.56-0.99-0.825-1.98-1.65-3-2.5-3.11-2.59-5.42-5.4-8-8.5-2-1.67-4-3.34-6-5-1.33-1.67-2.67-3.33-4-5-0.969-0.804-1.94-1.61-2.94-2.44-3.13-2.62-5.46-5.44-8.06-8.56-0.99-0.825-1.98-1.65-3-2.5-3.11-2.59-5.42-5.4-8-8.5-2-1.67-4-3.34-6-5-0.639-0.804-1.28-1.61-1.94-2.44-1.77-2.2-3.41-3.77-5.56-5.56-2.92-2.43-5.13-5.02-7.5-8-0.969-0.804-1.94-1.61-2.94-2.44-3.13-2.62-5.46-5.44-8.06-8.56-1.49-1.24-1.49-1.24-3-2.5-3.11-2.59-5.42-5.4-8-8.5-2-1.67-4-3.34-6-5-1.33-1.67-2.67-3.33-4-5-0.969-0.804-1.94-1.61-2.94-2.44-3.13-2.62-5.46-5.44-8.06-8.56-0.99-0.825-1.98-1.65-3-2.5-3.11-2.59-5.42-5.4-8-8.5-2-1.67-4-3.34-6-5-0.639-0.804-1.28-1.61-1.94-2.44-1.73-2.15-3.27-3.64-5.38-5.38-3.33-2.78-6.13-5.81-8.93-9.12-1.16-1.36-2.34-2.71-3.54-4.04-14.6-16.1-21.2-35.9-20.6-57.6 0.503-9.96 2.41-19.7 4.34-29.4 0.266-1.37 0.532-2.75 0.797-4.12 11-56.4 27.8-112 49.2-165z" fill="#000002"/>
<path transform="translate(1168,1194)" d="m0 0c-0.0445 0.558-0.0891 1.12-0.135 1.69-1.09 13.7-2.19 27.4-3.28 41.2-0.529 6.64-1.06 13.3-1.59 19.9-0.513 6.43-1.02 12.9-1.54 19.3-0.194 2.43-0.387 4.86-0.581 7.29-0.185 2.32-0.37 4.64-0.554 6.95-0.179 2.25-0.358 4.49-0.538 6.74-0.453 5.68-0.89 11.4-1.3 17.1-0.128 1.74-0.128 1.74-0.259 3.51-0.16 2.18-0.317 4.36-0.469 6.54-2.1 28.4-10.3 54.8-28.8 76.9-0.82 0.984-1.64 1.97-2.48 2.98-10.9 12.7-24.5 22-38.5 31-1.4 0.904-2.8 1.81-4.2 2.71-2.15 1.39-4.31 2.79-6.46 4.18-6.52 4.21-13 8.51-19.4 12.8-11.7 7.86-23.5 15.6-35.3 23.4-14.3 9.4-28.5 18.8-42.8 28.3-10.8 7.2-21.6 14.3-32.5 21.4-7.15 4.69-14.3 9.4-21.4 14.1-8.25 5.51-16.5 11-24.8 16.4-2.83 1.87-5.67 3.74-8.5 5.61-4.63 3.06-9.27 6.11-13.9 9.15-1.86 1.22-3.71 2.44-5.57 3.66-2.71 1.78-5.43 3.57-8.15 5.34-0.81 0.533-1.62 1.07-2.45 1.62-10.2 6.67-20.8 11-32.6 14.2-0.806 0.227-1.61 0.454-2.44 0.688-21.4 5.21-43.1-1.77-61.6-12.7-3.18-2.16-6.1-4.48-9-7-0.587-0.445-1.17-0.889-1.78-1.35-5.88-4.58-9.99-10.6-14.2-16.7-0.571-0.816-1.14-1.63-1.73-2.47-6.21-9.56-9-20.5-11.2-31.5-0.17-0.861-0.341-1.72-0.516-2.61-2.11-10.9-3.76-21.8-5.43-32.7-0.35-2.28-0.701-4.55-1.05-6.83-0.728-4.73-1.45-9.46-2.18-14.2-0.923-6.04-1.85-12.1-2.78-18.1-0.722-4.68-1.44-9.37-2.16-14.1-0.342-2.23-0.684-4.45-1.03-6.68-0.479-3.11-0.954-6.22-1.43-9.33-0.14-0.902-0.279-1.8-0.423-2.73-0.942-6.23-1.59-12.5-2.1-18.7 4.64-1.65 9.3-2.79 14.1-3.78 1.64-0.346 3.27-0.692 4.91-1.04 0.861-0.182 1.72-0.364 2.61-0.551 68-14.5 134-36.3 198-64.2 3.33-1.46 6.67-2.9 10-4.35 2.18-0.946 4.35-1.89 6.53-2.84 0.951-0.411 1.9-0.823 2.88-1.25 7.73-3.39 15.2-7.15 22.8-11 3.43-1.73 6.88-3.43 10.3-5.13 16.1-7.99 32.1-16.1 47.8-24.9 1.86-1.03 3.71-2.07 5.57-3.1 20.9-11.7 41.3-24 61.4-36.9 0.747-0.48 1.49-0.959 2.27-1.45 8.97-5.76 17.9-11.6 26.7-17.5 0.683-0.461 1.37-0.922 2.07-1.4 19-12.8 19-12.8 37.3-26.5 1.62-1.13 1.62-1.13 3.62-1.13z" fill="#000002"/>
<path transform="translate(406,433)" d="m0 0c-0.857 1.19-0.857 1.19-1.73 2.39-5.45 7.57-10.8 15.2-16 22.9-3.05 4.48-6.13 8.93-9.25 13.4-7.68 10.9-15 21.9-21.8 33.4-1.7 2.81-3.5 5.56-5.3 8.31-13.2 20.3-25.3 41.3-36.9 62.6-0.611 1.12-1.22 2.24-1.85 3.39-15.8 29-30.2 58.4-43.4 88.7-1.48 3.39-2.98 6.77-4.5 10.1-30.1 67.3-51.6 139-65.2 212-3.53 1.18-5.39 0.813-9.05 0.247-1.89-0.287-1.89-0.287-3.82-0.581-1.39-0.219-2.79-0.439-4.18-0.658-1.46-0.224-2.91-0.448-4.37-0.67-3.93-0.603-7.85-1.22-11.8-1.83-4.08-0.638-8.16-1.27-12.2-1.9-4.98-0.773-9.97-1.55-14.9-2.33-9.17-1.43-18.3-2.85-27.5-4.23-5.17-0.781-10.3-1.57-15.5-2.37-2.39-0.365-4.77-0.725-7.16-1.08-27.9-4.17-53.9-11.3-71.6-34.9-6.34-9.38-11.3-18.9-14.8-29.7l-0.969-2.71c-6.23-20.2-1.58-41.5 7.89-59.7 3.07-5.71 6.46-11.2 10.1-16.5 0.77-1.16 1.54-2.32 2.31-3.48 1.59-2.39 3.18-4.78 4.77-7.16 8.2-12.2 16.3-24.5 24.4-36.9 6.66-10.2 13.3-20.3 20.1-30.4 4.58-6.86 9.16-13.7 13.7-20.6 1.24-1.86 2.48-3.72 3.73-5.58 7.83-11.7 7.83-11.7 15.5-23.5 6.1-9.68 12.6-19.1 18.9-28.6 7.03-10.5 14-21 20.9-31.7 7.95-12.3 16.1-24.4 24.2-36.5 2.02-3 4.01-6.01 6.01-9.03 18-26.8 45.6-46.3 77.4-52.6 3.42-0.565 6.84-1.03 10.3-1.47 0.996-0.129 1.99-0.257 3.02-0.39 12.4-1.55 24.9-2.45 37.4-3.36 2.59-0.195 5.17-0.39 7.76-0.585 6.05-0.457 12.1-0.908 18.2-1.36 8.88-0.658 17.8-1.33 26.6-1.99 6.37-0.479 12.7-0.956 19.1-1.43 1.76-0.131 1.76-0.131 3.55-0.265 2.16-0.161 4.33-0.322 6.49-0.482 0.975-0.0728 1.95-0.146 2.95-0.221 0.931-0.0694 1.86-0.139 2.82-0.21 3.89-0.318 7.76-0.723 11.6-1.14 2.19-0.0897 2.19-0.0897 4.19 0.91z" fill="#000002"/>
<path transform="translate(1186,396)" d="m0 0c11.4 9.82 20.7 20.4 29 33 0.535 0.788 1.07 1.58 1.62 2.39 8.86 13.8 13.9 29.7 17.4 45.6 0.246 1.11 0.492 2.21 0.746 3.36 6.17 34.3-1.84 72.1-21.3 101-2.93 4.12-5.99 8.14-9.15 12.1-1.2 1.5-2.36 3.02-3.51 4.55-0.585 0.678-1.17 1.36-1.77 2.05h-2c-0.201 0.543-0.402 1.09-0.609 1.64-1.96 3.33-4.72 5.58-7.64 8.04-0.624 0.528-1.25 1.06-1.89 1.6-29.2 24.3-67.3 35.3-105 32.4-29.1-3.1-55.7-14.9-77.9-33.7-0.79-0.65-1.58-1.3-2.39-1.97-26.4-22.2-41.7-56.2-45.6-90-0.278-4.57-0.334-9.11-0.312-13.7 0.00491-1.22 0.00983-2.44 0.0149-3.7 0.126-9.8 0.984-19.1 3.3-28.6 0.166-0.696 0.333-1.39 0.504-2.11 9.13-36.9 33.2-67.9 65.5-87.7 50.2-29.5 117-23.8 161 13.8z" fill="#000002"/>
<path transform="translate(367 1220)" d="m0 0c10.5 7.47 17.3 17.5 20.1 30.1 0.98 16.2-1.51 29.3-12.5 41.9-3.1 3.3-6.31 6.48-9.51 9.66-1.23 1.24-2.47 2.48-3.7 3.72-3.37 3.39-6.75 6.77-10.1 10.1-3.66 3.65-7.3 7.31-10.9 11-7.14 7.16-14.3 14.3-21.4 21.5-5.82 5.81-11.6 11.6-17.4 17.4-0.828 0.829-1.66 1.66-2.51 2.51-1.68 1.68-3.36 3.37-5.05 5.05-15.8 15.8-31.5 31.6-47.3 47.3-14.4 14.4-28.8 28.8-43.2 43.3-14.8 14.8-29.6 29.7-44.4 44.5-8.32 8.31-16.6 16.6-24.9 25-7.07 7.09-14.1 14.2-21.2 21.2-3.61 3.6-7.22 7.21-10.8 10.8-3.3 3.32-6.61 6.63-9.93 9.92-1.19 1.19-2.38 2.38-3.57 3.58-11.4 11.5-24.2 20.9-41 22-13.6-0.476-26.5-6.78-35.7-16.5-8.21-9.91-12.5-21.9-12-34.8 1.63-13.6 9.27-26.1 19.4-35.2h2l2-4h2c0.268-0.598 0.536-1.2 0.812-1.81 1.19-2.19 2.28-3.6 4.19-5.19h2c0.33-0.99 0.66-1.98 1-3h2c0.66-1.32 1.32-2.64 2-4h2c0.33-0.99 0.66-1.98 1-3 1.94-2.19 1.94-2.19 4-4h2c0.33-0.99 0.66-1.98 1-3 1.98-1.69 3.98-3.35 6-5 0.66-0.99 1.32-1.98 2-3h2c0.33-0.99 0.66-1.98 1-3 1.94-2.19 1.94-2.19 4-4h2c0.33-0.99 0.66-1.98 1-3h2c0.66-1.32 1.32-2.64 2-4h2c0.66-1.32 1.32-2.64 2-4h2c0.33-0.99 0.66-1.98 1-3 1.94-2.19 1.94-2.19 4-4h2c0.33-0.99 0.66-1.98 1-3 1.94-2.19 1.94-2.19 4-4h2c0.33-0.99 0.66-1.98 1-3 1.94-2.19 1.94-2.19 4-4h2c0.66-1.32 1.32-2.64 2-4h2c0.33-0.99 0.66-1.98 1-3 1.94-2.19 1.94-2.19 4-4h2c0.33-0.99 0.66-1.98 1-3h2c0.66-1.32 1.32-2.64 2-4h2c0.33-0.99 0.66-1.98 1-3h2c0.66-1.32 1.32-2.64 2-4h2c0.66-1.32 1.32-2.64 2-4h2c0.33-0.99 0.66-1.98 1-3 1.94-2.19 1.94-2.19 4-4h2c0.33-0.99 0.66-1.98 1-3h2c0.66-1.32 1.32-2.64 2-4h2c0.33-0.99 0.66-1.98 1-3h2c0.66-1.32 1.32-2.64 2-4h2c0.66-1.32 1.32-2.64 2-4h2c0.33-0.99 0.66-1.98 1-3 1.94-2.19 1.94-2.19 4-4h2c0.33-0.99 0.66-1.98 1-3h2c0.66-1.32 1.32-2.64 2-4h2c0.33-0.99 0.66-1.98 1-3h2c0.66-1.32 1.32-2.64 2-4h2c0.66-1.32 1.32-2.64 2-4h2c0.268-0.598 0.536-1.2 0.812-1.81 1.19-2.19 2.28-3.6 4.19-5.19h2c0.33-0.99 0.66-1.98 1-3h2c0.66-1.32 1.32-2.64 2-4h2c0.33-0.99 0.66-1.98 1-3h2c0.99-1.98 0.99-1.98 2-4h2c0.99-1.98 0.99-1.98 2-4h2c0.402-0.897 0.402-0.897 0.812-1.81 1.19-2.19 2.28-3.6 4.19-5.19h2c0.33-0.99 0.66-1.98 1-3h2c0.99-1.98 0.99-1.98 2-4h2c0.33-0.99 0.66-1.98 1-3h2c0.99-1.98 0.99-1.98 2-4h2c0.99-1.98 0.99-1.98 2-4h2c0.33-0.99 0.66-1.98 1-3h2c0.99-1.98 0.99-1.98 2-4h2c0.33-0.99 0.66-1.98 1-3h2c0.99-1.98 0.99-1.98 2-4h2c0.33-0.99 0.66-1.98 1-3h2c0.217-0.541 0.433-1.08 0.656-1.64 1.81-3.18 4.26-5.57 6.84-8.11 0.499-0.507 0.998-1.01 1.51-1.54 3.73-3.71 3.73-3.71 5.99-3.71 0.33-0.99 0.66-1.98 1-3h2c0.66-1.32 1.32-2.64 2-4h2c0.33-0.99 0.66-1.98 1-3h2c0.325-0.812 0.325-0.812 0.656-1.64 1.81-3.18 4.26-5.57 6.84-8.11 0.499-0.507 0.998-1.01 1.51-1.54 3.73-3.71 3.73-3.71 5.99-3.71 0.33-0.99 0.66-1.98 1-3h2c0.66-1.32 1.32-2.64 2-4h2c0.33-0.99 0.66-1.98 1-3h2c0.325-0.812 0.325-0.812 0.656-1.64 1.81-3.18 4.26-5.57 6.84-8.11 0.499-0.507 0.998-1.01 1.51-1.54 3.73-3.71 3.73-3.71 5.99-3.71 0.33-0.99 0.66-1.98 1-3 16.8-14.4 40-17 58.9-5.06z" fill="#000002"/>
<path transform="translate(507 1360)" d="m0 0c10.5 7.69 17.6 17.5 20.8 30.2 1.94 13.1-0.952 25.9-8.69 36.6-7.45 9.7-16.5 18.2-25.1 26.8-1.43 1.43-2.85 2.87-4.28 4.31-4.65 4.68-9.31 9.35-14 14-1.61 1.62-3.22 3.24-4.84 4.85-6.71 6.73-13.4 13.5-20.1 20.2-9.58 9.6-19.2 19.2-28.7 28.8-6.75 6.79-13.5 13.6-20.3 20.3-4.03 4.03-8.06 8.07-12.1 12.1-3.78 3.81-7.57 7.61-11.4 11.4-1.38 1.38-2.76 2.77-4.14 4.16-13.2 13.3-26.2 24.4-45.7 24.8-12.4-0.049-23.1-3.79-32.2-12.5-0.953-0.911-0.953-0.911-1.93-1.84-4.83-5.05-7.58-10.7-10.1-17.2-0.367-0.933-0.735-1.87-1.11-2.83-2.9-10.4-1.57-22.5 3.11-32.2 0.305-0.637 0.61-1.27 0.924-1.93 5.01-9.34 12.8-16.3 20.2-23.7 1.55-1.56 3.1-3.12 4.65-4.67 4.2-4.21 8.4-8.41 12.6-12.6 4.41-4.4 8.82-8.82 13.2-13.2 7.87-7.88 15.8-15.8 23.6-23.6 7.14-7.12 14.3-14.3 21.4-21.4 8.29-8.31 16.6-16.6 24.9-24.9 4.39-4.38 8.77-8.77 13.2-13.2 4.12-4.13 8.25-8.25 12.4-12.4 1.51-1.51 3.02-3.02 4.53-4.53 14.6-14.7 14.6-14.7 23.4-18.9 0.858-0.418 1.72-0.836 2.6-1.27 13.6-6.29 30.7-3.7 43.2 4.02z" fill="#000002"/>
<path transform="translate(230,1082)" d="m0 0c8.79 7.25 15.7 17.4 17 29 1.03 13.9-1.17 26-10 37-8.06 9.18-16.7 17.8-25.3 26.5-1.4 1.41-2.81 2.81-4.21 4.22-3.77 3.79-7.55 7.57-11.3 11.4-2.37 2.37-4.73 4.74-7.1 7.11-7.42 7.43-14.8 14.9-22.3 22.3-8.54 8.54-17.1 17.1-25.6 25.7-6.62 6.64-13.2 13.3-19.9 19.9-3.95 3.95-7.89 7.9-11.8 11.9-3.7 3.72-7.41 7.43-11.1 11.1-1.36 1.36-2.71 2.71-4.06 4.07-13.3 13.4-26.6 25.6-46.5 26.3-11.8-0.218-23.5-4.29-32.1-12.6-2.02-2.21-3.9-4.47-5.75-6.82-0.742-0.928-1.48-1.86-2.25-2.81-5.99-10.9-8.46-23.6-5.47-35.9 4.73-15.3 15.7-25.7 26.7-36.8 1.53-1.54 3.06-3.07 4.59-4.61 4.13-4.15 8.27-8.3 12.4-12.4 3.47-3.47 6.93-6.94 10.4-10.4 8.17-8.19 16.4-16.4 24.5-24.6 8.43-8.42 16.8-16.9 25.2-25.3 7.23-7.26 14.5-14.5 21.7-21.8 4.32-4.32 8.64-8.65 13-13 4.05-4.08 8.12-8.14 12.2-12.2 1.49-1.48 2.97-2.97 4.45-4.47 20-20.2 46.9-33.1 72.5-12.8z" fill="#000002"/>
</svg>
