<?xml version="1.0" standalone="no"?>
<!DOCTYPE svg PUBLIC "-//W3C//DTD SVG 20010904//EN"
 "http://www.w3.org/TR/2001/REC-SVG-20010904/DTD/svg10.dtd">
<svg version="1.0" xmlns="http://www.w3.org/2000/svg"
 width="1280.000000pt" height="1280.000000pt" viewBox="0 0 1280.000000 1280.000000"
 preserveAspectRatio="xMidYMid meet">
<metadata>
Created by potrace 1.14, written by Peter Selinger 2001-2017
</metadata>
<g transform="translate(0.000000,1280.000000) scale(0.100000,-0.100000)"
fill="#000000" stroke="none">
<path d="M6068 12725 c-2 -1 -52 -6 -113 -10 -60 -3 -123 -8 -140 -10 -16 -2
-57 -7 -90 -10 -33 -3 -71 -8 -85 -10 -14 -2 -50 -6 -81 -10 -31 -3 -65 -7
-75 -9 -20 -4 -88 -14 -139 -22 -16 -2 -54 -9 -83 -15 -29 -6 -65 -12 -80 -14
-33 -5 -363 -81 -412 -96 -19 -5 -60 -17 -90 -25 -138 -37 -492 -154 -575
-189 -16 -7 -100 -43 -185 -78 -296 -124 -574 -268 -885 -460 -109 -67 -454
-308 -491 -342 -6 -5 -23 -19 -38 -30 -94 -67 -301 -246 -454 -390 -746 -703
-1318 -1592 -1643 -2554 -48 -143 -120 -378 -135 -441 -1 -8 -18 -80 -37 -160
-19 -80 -37 -161 -41 -180 -3 -19 -8 -46 -11 -60 -3 -14 -7 -38 -10 -55 -3
-16 -10 -52 -15 -80 -5 -27 -12 -70 -15 -95 -3 -25 -10 -72 -15 -105 -20 -136
-30 -228 -47 -455 -15 -200 -9 -765 11 -970 2 -19 7 -66 11 -105 7 -73 14
-133 20 -175 2 -14 9 -61 15 -105 23 -161 87 -480 129 -645 62 -236 201 -661
251 -765 5 -11 18 -42 29 -70 10 -27 31 -77 46 -110 15 -33 41 -91 58 -130 79
-175 328 -635 349 -643 4 -2 8 -8 8 -14 0 -15 201 -315 304 -453 121 -163 325
-410 421 -511 283 -298 516 -512 769 -707 55 -43 108 -84 116 -91 53 -43 395
-276 404 -276 3 0 24 -13 48 -29 179 -119 574 -324 848 -439 254 -107 632
-238 799 -277 9 -3 43 -12 76 -21 33 -9 68 -18 78 -20 9 -2 25 -6 35 -8 56
-14 211 -48 232 -52 14 -2 36 -7 50 -10 26 -6 37 -8 130 -24 138 -23 312 -47
410 -55 41 -4 86 -8 99 -10 164 -26 894 -26 1136 0 22 2 69 7 105 10 83 8 112
12 225 29 17 2 50 7 75 10 25 3 56 8 70 11 14 3 52 10 85 15 74 13 304 64 405
89 41 11 111 28 155 39 103 27 434 134 550 179 165 64 418 174 562 245 124 61
482 259 546 303 12 8 94 62 181 121 325 216 582 424 882 715 147 142 274 278
394 419 30 36 57 67 60 70 3 3 49 59 101 125 289 363 608 883 780 1270 12 28
35 79 52 115 82 179 215 548 286 795 19 66 86 336 95 380 2 11 11 56 20 100 9
44 18 91 20 105 3 14 7 36 10 49 8 35 44 288 51 351 3 30 7 73 10 95 23 188
30 349 30 665 0 265 -8 477 -20 553 -2 12 -6 56 -10 97 -7 82 -10 109 -25 220
-15 104 -19 131 -25 160 -2 14 -11 63 -19 110 -21 122 -62 310 -91 420 -14 52
-27 102 -29 112 -15 58 -84 283 -120 388 -150 435 -363 883 -610 1280 -22 36
-43 67 -46 70 -3 3 -11 16 -19 30 -43 78 -332 476 -396 546 -5 6 -28 33 -50
60 -143 174 -386 430 -557 586 -50 46 -98 90 -107 99 -39 38 -276 232 -386
315 -118 89 -352 251 -448 310 -27 16 -61 37 -75 46 -45 29 -161 95 -317 180
-223 123 -596 287 -860 378 -215 74 -558 174 -669 194 -12 2 -39 9 -61 14 -22
6 -51 13 -65 16 -14 3 -61 12 -104 21 -192 38 -443 73 -646 90 -36 3 -85 8
-110 11 -49 6 -776 14 -782 9z"/>
</g>
</svg>
